<svg width="46" height="46" viewBox="0 0 46 46" fill="none" xmlns="http://www.w3.org/2000/svg">
<path d="M22.72 0.999991C16.7782 0.999982 11.0791 3.35764 6.87376 7.55544C2.66847 11.7532 0.300635 17.4481 0.290039 23.39V45.82H22.72C28.6688 45.82 34.374 43.4568 38.5804 39.2504C42.7869 35.044 45.15 29.3388 45.15 23.39C45.15 17.4412 42.7869 11.736 38.5804 7.52959C34.374 3.32314 28.6688 0.959991 22.72 0.959991V0.999991ZM14.31 26.3C13.7345 26.3 13.1719 26.1293 12.6933 25.8096C12.2148 25.4898 11.8418 25.0353 11.6216 24.5036C11.4013 23.9719 11.3437 23.3868 11.456 22.8223C11.5682 22.2578 11.8454 21.7393 12.2524 21.3323C12.6593 20.9253 13.1778 20.6482 13.7423 20.5359C14.3068 20.4236 14.8919 20.4813 15.4236 20.7015C15.9554 20.9218 16.4099 21.2947 16.7296 21.7733C17.0494 22.2518 17.22 22.8144 17.22 23.39C17.22 24.1618 16.9135 24.9019 16.3677 25.4477C15.822 25.9934 15.0818 26.3 14.31 26.3ZM23.31 26.3C22.7345 26.3 22.1719 26.1293 21.6933 25.8096C21.2148 25.4898 20.8418 25.0353 20.6216 24.5036C20.4013 23.9719 20.3437 23.3868 20.456 22.8223C20.5682 22.2578 20.8454 21.7393 21.2524 21.3323C21.6593 20.9253 22.1778 20.6482 22.7423 20.5359C23.3068 20.4236 23.8919 20.4813 24.4236 20.7015C24.9554 20.9218 25.4099 21.2947 25.7296 21.7733C26.0494 22.2518 26.22 22.8144 26.22 23.39C26.22 23.7738 26.1441 24.1539 25.9966 24.5082C25.8491 24.8626 25.633 25.1843 25.3607 25.4548C25.0883 25.7253 24.7652 25.9392 24.4098 26.0842C24.0544 26.2293 23.6739 26.3026 23.29 26.3H23.31ZM32.31 26.3C31.7345 26.3 31.1719 26.1293 30.6933 25.8096C30.2148 25.4898 29.8418 25.0353 29.6215 24.5036C29.4013 23.9719 29.3437 23.3868 29.456 22.8223C29.5682 22.2578 29.8454 21.7393 30.2524 21.3323C30.6593 20.9253 31.1778 20.6482 31.7423 20.5359C32.3068 20.4236 32.8919 20.4813 33.4236 20.7015C33.9554 20.9218 34.4099 21.2947 34.7296 21.7733C35.0494 22.2518 35.22 22.8144 35.22 23.39C35.2201 23.7755 35.1435 24.1572 34.9948 24.5129C34.846 24.8686 34.6281 25.1912 34.3536 25.4619C34.0792 25.7327 33.7536 25.9462 33.3959 26.0901C33.0382 26.2339 32.6555 26.3053 32.27 26.3H32.31Z" fill="white"/>
</svg>
