<svg width="34" height="34" viewBox="0 0 34 34" fill="none" xmlns="http://www.w3.org/2000/svg">
<path d="M10.6288 18.1213L22.625 11.3L15.7703 23.2377C15.6522 23.4433 15.5941 23.6775 15.6023 23.9142C15.6104 24.1508 15.6847 24.3805 15.8167 24.5775L21.1723 32.5718C21.3053 32.7703 21.4917 32.9278 21.7102 33.0262C21.9288 33.1245 22.1706 33.1599 22.4084 33.1282C22.6461 33.0966 22.8701 32.9991 23.0549 32.847C23.2397 32.6949 23.378 32.4942 23.4538 32.2678L33.5925 1.99892C33.6678 1.77427 33.6787 1.53319 33.624 1.30271C33.5694 1.07223 33.4513 0.861448 33.283 0.693996C33.1147 0.526544 32.9029 0.409036 32.6713 0.354644C32.4397 0.300251 32.1974 0.311124 31.9717 0.386042L1.55482 10.4755C1.32726 10.551 1.12556 10.6885 0.972678 10.8724C0.819796 11.0564 0.721868 11.2793 0.690041 11.5159C0.658213 11.7525 0.693763 11.9932 0.792646 12.2107C0.891529 12.4282 1.04977 12.6136 1.24937 12.746L9.28281 18.0755C9.48077 18.2067 9.71153 18.2805 9.94925 18.2886C10.187 18.2967 10.4222 18.2387 10.6288 18.1213Z" fill="#76A3D4" fill-opacity="0.5"/>
</svg>
